<svg xmlns="http://www.w3.org/2000/svg" version="1.1" xmlns:xlink="http://www.w3.org/1999/xlink" xmlns:svgjs="http://svgjs.dev/svgjs" width="1000" height="646" viewBox="0 0 1000 646"><g transform="matrix(1,0,0,1,0.05727150288237226,0.26153846153846416)"><svg viewBox="0 0 382 247" data-background-color="#7c4e29" preserveAspectRatio="xMidYMid meet" height="646" width="1000" xmlns="http://www.w3.org/2000/svg" xmlns:xlink="http://www.w3.org/1999/xlink"><defs></defs><g id="tight-bounds" transform="matrix(1,0,0,1,-0.021877714101066204,-0.09999999999999432)"><svg viewBox="0 0 382.0437395760096 247.2" height="247.2" width="382.0437395760096"><g><svg viewBox="0 0 395.52 255.91976486385437" height="247.2" width="382.0437395760096"><g transform="matrix(1,0,0,1,0,186.49927750345827)"><svg viewBox="0 0 395.52 69.42048736039611" height="69.42048736039611" width="395.52"><g><svg viewBox="0 0 395.52 69.42048736039611" height="69.42048736039611" width="395.52"><g><svg viewBox="0 0 395.52 37.442093722369584" height="37.442093722369584" width="395.52"><g transform="matrix(1,0,0,1,0,0)"><svg width="395.52" viewBox="3.0999999046325684 -38.66999816894531 414.16998291015625 39.209999084472656" height="37.442093722369584" data-palette-color="#ffffff"><path d="M3.1-19.31L3.1-19.31Q3.1-23.39 4.64-26.92 6.18-30.44 9.09-33.04 12.01-35.64 16.22-37.13 20.43-38.62 25.76-38.62L25.76-38.62Q30.42-38.62 34.31-37.68 38.21-36.74 41.55-34.81L41.55-34.81 37.99-28.96Q36.99-29.61 35.68-30.13 34.38-30.64 32.9-30.99 31.42-31.35 29.85-31.54 28.27-31.74 26.73-31.74L26.73-31.74Q23.02-31.74 20.12-30.82 17.21-29.91 15.22-28.26 13.23-26.61 12.19-24.33 11.16-22.05 11.16-19.31L11.16-19.31Q11.16-16.48 12.23-14.11 13.31-11.74 15.34-10.02 17.38-8.3 20.32-7.34 23.27-6.37 26.98-6.37L26.98-6.37Q28.66-6.37 30.32-6.62 31.98-6.86 33.53-7.29 35.08-7.71 36.52-8.31 37.96-8.91 39.21-9.62L39.21-9.62 42.77-3.76Q39.65-1.76 35.55-0.62 31.45 0.51 26.83 0.51L26.83 0.51Q20.95 0.51 16.5-1.01 12.06-2.54 9.08-5.21 6.1-7.89 4.6-11.51 3.1-15.14 3.1-19.31ZM46.38 0L64.3-38.16 72.51-38.16 90.96 0 82.83 0 79.78-6.42 57.49-6.42 54.54 0 46.38 0ZM60.45-12.79L76.73-12.79 68.48-30.13 60.45-12.79ZM96.89 0L96.89-38.16 116.3-38.16Q120.7-38.16 123.92-37.24 127.14-36.33 129.27-34.59 131.39-32.86 132.43-30.37 133.47-27.88 133.47-24.73L133.47-24.73Q133.47-22.61 132.95-20.69 132.44-18.77 131.38-17.16 130.32-15.55 128.71-14.29 127.09-13.04 124.92-12.21L124.92-12.21 133.22 0 123.75 0 116.57-10.84 116.35-10.84 104.63-10.86 104.63 0 96.89 0ZM104.63-17.55L116.5-17.55Q118.7-17.55 120.34-18.07 121.99-18.58 123.1-19.51 124.21-20.43 124.76-21.77 125.31-23.1 125.31-24.73L125.31-24.73Q125.31-27.93 123.12-29.68 120.92-31.42 116.5-31.42L116.5-31.42 104.63-31.42 104.63-17.55ZM142.62 0L142.62-38.16 163.01-38.16Q166.74-38.16 169.51-37.37 172.28-36.57 174.11-35.18 175.94-33.79 176.84-31.87 177.73-29.96 177.73-27.73L177.73-27.73Q177.73-24.1 175.43-21.36L175.43-21.36Q178.07-19.8 179.36-17.31 180.66-14.82 180.66-11.65L180.66-11.65Q180.66-8.98 179.77-6.84 178.87-4.69 177.06-3.16 175.24-1.64 172.47-0.82 169.69 0 165.93 0L165.93 0 142.62 0ZM150.36-23.51L165.98-23.51Q166.98-23.51 167.94-23.44L167.94-23.44Q169.57-25 169.57-27L169.57-27Q169.57-29.08 167.95-30.21 166.33-31.35 163.2-31.35L163.2-31.35 150.36-31.35 150.36-23.51ZM150.36-6.74L166.13-6.74Q169.26-6.74 170.88-8.08 172.5-9.42 172.5-11.87L172.5-11.87Q172.5-14.31 170.88-15.67 169.26-17.04 166.13-17.04L166.13-17.04 150.36-17.04 150.36-6.74ZM188.47 0L188.47-38.16 196.21-38.16 196.21-28.2 219.94-28.2 219.94-38.16 227.7-38.16 227.7 0 219.94 0 219.94-21.58 196.21-21.58 196.21 0 188.47 0ZM236.29-19.19L236.29-19.19Q236.29-23.51 237.88-27.1 239.47-30.69 242.33-33.26 245.2-35.84 249.22-37.26 253.23-38.67 258.12-38.67L258.12-38.67Q262.98-38.67 267-37.26 271.03-35.84 273.9-33.26 276.77-30.69 278.36-27.1 279.94-23.51 279.94-19.19L279.94-19.19Q279.94-14.84 278.36-11.22 276.77-7.59 273.9-4.98 271.03-2.37 267-0.92 262.98 0.54 258.12 0.54L258.12 0.54Q253.23 0.54 249.22-0.92 245.2-2.37 242.33-4.98 239.47-7.59 237.88-11.22 236.29-14.84 236.29-19.19ZM244.03-19.19L244.03-19.19Q244.03-16.24 245.09-13.87 246.15-11.5 248.05-9.83 249.94-8.15 252.51-7.25 255.09-6.35 258.12-6.35L258.12-6.35Q261.14-6.35 263.72-7.25 266.3-8.15 268.18-9.83 270.06-11.5 271.13-13.87 272.2-16.24 272.2-19.19L272.2-19.19Q272.2-22.14 271.13-24.49 270.06-26.83 268.18-28.45 266.3-30.08 263.72-30.93 261.14-31.79 258.12-31.79L258.12-31.79Q255.09-31.79 252.51-30.93 249.94-30.08 248.05-28.45 246.15-26.83 245.09-24.49 244.03-22.14 244.03-19.19ZM287.09-16.21L287.09-38.16 294.83-38.16 294.83-17.14Q294.83-14.55 295.54-12.54 296.25-10.52 297.65-9.13 299.06-7.74 301.13-7.02 303.21-6.3 305.97-6.3L305.97-6.3Q308.7-6.3 310.79-7.02 312.88-7.74 314.28-9.13 315.68-10.52 316.39-12.54 317.1-14.55 317.1-17.14L317.1-17.14 317.1-38.16 324.84-38.16 324.84-16.21Q324.84-12.45 323.57-9.38 322.3-6.3 319.88-4.1 317.47-1.9 313.96-0.71 310.46 0.49 305.97 0.49L305.97 0.49Q301.47 0.49 297.97-0.71 294.47-1.9 292.05-4.1 289.63-6.3 288.36-9.38 287.09-12.45 287.09-16.21L287.09-16.21ZM331.92-5.08L336.04-11.35Q338.12-10.18 340.25-9.24 342.39-8.3 344.68-7.65 346.98-7.01 349.51-6.67 352.03-6.32 354.89-6.32L354.89-6.32Q358.33-6.32 360.75-6.77 363.17-7.23 364.69-8.02 366.22-8.81 366.91-9.91 367.61-11.01 367.61-12.3L367.61-12.3Q367.61-14.38 365.88-15.59 364.14-16.8 360.53-16.8L360.53-16.8Q358.94-16.8 357.18-16.59 355.43-16.38 353.63-16.14 351.84-15.89 350.09-15.69 348.35-15.48 346.81-15.48L346.81-15.48Q344.25-15.48 341.89-16.14 339.53-16.8 337.71-18.12 335.9-19.43 334.82-21.41 333.75-23.39 333.75-26.03L333.75-26.03Q333.75-27.59 334.17-29.13 334.6-30.66 335.54-32.07 336.48-33.47 337.97-34.68 339.46-35.89 341.57-36.77 343.68-37.65 346.45-38.15 349.23-38.65 352.77-38.65L352.77-38.65Q355.33-38.65 357.92-38.37 360.5-38.09 362.96-37.57 365.41-37.06 367.68-36.34 369.95-35.62 371.91-34.74L371.91-34.74 368.51-28.49Q366.9-29.2 365.05-29.8 363.19-30.4 361.16-30.83 359.14-31.27 356.98-31.53 354.82-31.79 352.57-31.79L352.57-31.79Q349.37-31.79 347.31-31.32 345.25-30.86 344.03-30.14 342.8-29.42 342.33-28.53 341.85-27.64 341.85-26.76L341.85-26.76Q341.85-25.05 343.39-23.96 344.93-22.88 348.08-22.88L348.08-22.88Q349.35-22.88 351-23.06 352.64-23.24 354.46-23.46 356.28-23.68 358.17-23.86 360.07-24.05 361.85-24.05L361.85-24.05Q365.22-24.05 367.82-23.29 370.42-22.53 372.17-21.13 373.93-19.73 374.84-17.74 375.74-15.75 375.74-13.28L375.74-13.28Q375.74-9.99 374.21-7.41 372.69-4.83 369.87-3.06 367.05-1.29 363.07-0.38 359.09 0.54 354.21 0.54L354.21 0.54Q350.98 0.54 347.91 0.13 344.83-0.27 342.01-1.01 339.19-1.76 336.64-2.8 334.09-3.83 331.92-5.08L331.92-5.08ZM384.26 0L384.26-38.16 416.75-38.16 416.75-31.37 392-31.37 392-23.75 413.92-23.75 413.92-17.38 392-17.38 392-6.76 417.27-6.76 417.27 0 384.26 0Z" opacity="1" transform="matrix(1,0,0,1,0,0)" fill="#ffffff" class="undefined-text-0" data-fill-palette-color="primary" id="text-0"></path></svg></g></svg></g><g transform="matrix(1,0,0,1,0,46.281273439971706)"><svg viewBox="0 0 395.52 23.139213920424403" height="23.139213920424403" width="395.52"><g transform="matrix(1,0,0,1,0,0)"><svg width="395.52" viewBox="4.309999942779541 -32.529998779296875 713.1900024414062 41.72999954223633" height="23.139213920424403" data-palette-color="#ffffff"><path d="M4.31-1.9L4.31-29.48Q4.31-30.17 4.71-30.57L4.71-30.57Q5.4-31.26 6.21-31.38L6.21-31.38 16.32-31.38Q20.52-31.38 23.22-29.14L23.22-29.14Q25.86-27.01 25.86-23.45L25.86-23.45Q25.86-20.86 24.25-18.97L24.25-18.97Q22.53-17.01 19.83-16.38L19.83-16.38 19.83-16.32Q25-15.4 26.67-11.38L26.67-11.38Q27.13-10.11 27.13-8.51 27.13-6.9 26.61-5.34 26.09-3.79 24.83-2.64L24.83-2.64Q21.95 0 16.72 0L16.72 0 6.21 0Q5.52 0 5-0.46L5-0.46Q4.31-1.03 4.31-1.9L4.31-1.9ZM8.1-14.71L8.1-2.99 14.71-2.99Q19.08-2.99 20.86-4.25L20.86-4.25Q23.1-5.63 23.1-8.85L23.1-8.85Q23.1-13.91 17.13-14.6L17.13-14.6Q15.34-14.71 13.1-14.71L13.1-14.71 8.1-14.71ZM21.9-23.1L21.9-23.1Q21.9-28.39 14.6-28.28L14.6-28.28 8.1-28.28 8.1-17.59 14.66-17.59Q19.48-17.59 21.26-20.52L21.26-20.52Q21.9-21.55 21.9-23.1ZM44.92-20.11L44.92-18.16Q46.3-22.24 50.96-22.24L50.96-22.24Q51.82-22.24 52.25-21.75 52.68-21.26 52.68-20.72 52.68-20.17 52.25-19.68 51.82-19.2 50.67-19.2 49.52-19.2 48.37-18.74 47.22-18.28 46.47-17.41L46.47-17.41Q44.92-15.52 44.92-12.41L44.92-12.41 44.92-1.61Q44.92-0.8 44.35-0.4 43.77 0 43.31 0 42.85 0 42.56-0.09 42.28-0.17 41.99-0.46L41.99-0.46Q41.47-0.8 41.47-1.61L41.47-1.61 41.47-20.11Q41.47-20.86 41.99-21.35 42.51-21.84 43.28-21.84 44.06-21.84 44.49-21.35 44.92-20.86 44.92-20.11L44.92-20.11ZM84.09-11.55L84.09-11.55Q84.09-10.34 82.72-10.23L82.72-10.23 66.97-10.23Q67.2-4.37 71.57-2.64L71.57-2.64Q72.77-2.24 74.32-2.24L74.32-2.24Q77.54-2.24 80.88-4.6L80.88-4.6Q81.91-5.17 82.6-4.48L82.6-4.48Q82.95-4.14 82.83-3.79L82.83-3.79Q82.83-2.99 82.43-2.64L82.43-2.64Q79.27 0.52 74.09 0.46L74.09 0.46Q69.38 0.46 66.51-2.59L66.51-2.59Q63.29-5.75 63.29-10.92L63.29-10.92Q63.29-15.69 65.93-18.79L65.93-18.79Q68.69-22.24 73.75-22.24L73.75-22.24Q78.81-22.24 81.45-19.2L81.45-19.2Q83.98-16.44 84.09-11.55ZM67.08-12.59L80.7-12.59Q80.53-15.69 78.69-17.7L78.69-17.7Q76.97-19.54 73.75-19.54L73.75-19.54Q70.99-19.54 69.04-17.47L69.04-17.47Q67.26-15.4 67.08-12.59L67.08-12.59ZM107.52-13.28L107.52-13.28Q108.73-13.28 109.93-13.22L109.93-13.22 109.93-15.06Q109.93-19.54 104.93-19.54L104.93-19.54Q102.69-19.54 101.66-19.14L101.66-19.14Q99.82-18.45 99.02-17.96 98.21-17.47 97.75-17.47 97.29-17.47 96.89-17.82 96.49-18.16 96.49-18.74L96.49-18.74Q96.49-19.2 97-19.66L97-19.66Q99.71-22.24 104.99-22.24L104.99-22.24Q111.08-22.24 112.81-18.16L112.81-18.16Q113.38-16.72 113.38-14.83L113.38-14.83 113.27-1.55Q113.27-0.8 112.75-0.4 112.23 0 111.6 0 110.97 0 110.45-0.34 109.93-0.69 109.93-1.49L109.93-1.49 109.93-3.56Q108.56-0.57 104.99 0.17L104.99 0.17Q103.9 0.46 102.52 0.46 101.14 0.46 99.79 0.06 98.44-0.34 97.41-1.21L97.41-1.21Q95.28-2.99 95.28-6.03L95.28-6.03Q95.28-13.28 107.52-13.28ZM109.93-8.74L109.93-10.69Q109.02-10.57 107.81-10.57 106.6-10.57 105.34-10.55 104.07-10.52 102.92-10.26 101.77-10 100.85-9.48L100.85-9.48Q98.9-8.45 98.79-6.09L98.79-6.09Q98.79-4.25 100.28-3.22L100.28-3.22Q101.43-2.3 103.56-2.24L103.56-2.24Q106.14-2.24 108.04-3.91L108.04-3.91Q109.76-5.52 109.93-8.74L109.93-8.74ZM143.19-1.61L143.19-3.62Q140.32 0.46 135.37 0.46L135.37 0.46Q130.89 0.46 128.36-3.1L128.36-3.1Q126.18-6.32 126.18-10.92L126.18-10.92Q126.18-18.62 131.29-21.26L131.29-21.26Q133.02-22.24 134.77-22.24 136.52-22.24 137.67-22.04 138.82-21.84 139.86-21.26L139.86-21.26Q142.04-20.17 143.19-18.28L143.19-18.28 143.19-29.66Q143.19-30.52 143.76-30.89 144.34-31.26 145.03-31.26L145.03-31.26Q145.72-31.26 146.24-30.89 146.75-30.52 146.75-29.66L146.75-29.66 146.75-1.61Q146.75-0.8 146.18-0.4 145.6 0 145.14 0 144.68 0 144.37-0.09 144.05-0.17 143.76-0.46L143.76-0.46Q143.19-0.86 143.19-1.61L143.19-1.61ZM136.06-2.24L136.06-2.24Q143.07-2.24 143.07-11.26L143.07-11.26Q143.07-17.07 139.57-18.85L139.57-18.85Q138.25-19.54 136.41-19.54 134.57-19.54 133.36-18.82 132.15-18.1 131.35-16.9L131.35-16.9Q129.91-14.66 129.91-11.21L129.91-11.21Q129.91-6.09 132.33-3.68L132.33-3.68Q133.71-2.24 136.06-2.24ZM168.51-19.54L168.51-19.54Q163.51-19.54 163.63-16.38L163.63-16.38Q163.63-14.37 166.5-13.62L166.5-13.62Q167.48-13.33 168.6-13.1 169.72-12.87 171.04-12.56 172.36-12.24 173.74-11.72L173.74-11.72Q175.7-11.15 176.76-9.8 177.82-8.45 177.82-6.55L177.82-6.55Q177.82-3.1 174.89-1.21L174.89-1.21Q172.25 0.52 168.22 0.46L168.22 0.46Q165.24 0.46 162.36-0.57L162.36-0.57Q161.21-1.03 160.52-1.67 159.83-2.3 159.83-2.87 159.83-3.45 160.21-3.79 160.58-4.14 161.1-4.14 161.62-4.14 162.28-3.85 162.94-3.56 163.97-3.22L163.97-3.22Q166.62-2.24 168.22-2.24 169.83-2.24 170.81-2.44 171.79-2.64 172.59-3.1L172.59-3.1Q174.32-4.25 174.32-6.09L174.32-6.09Q174.32-7.41 173.48-8.13 172.65-8.85 171.36-9.25 170.06-9.66 168.8-9.94 167.54-10.23 166.27-10.52 165.01-10.8 163.86-11.21 162.71-11.61 161.9-12.3L161.9-12.3Q159.95-13.68 159.95-16.21L159.95-16.21Q159.95-19.43 162.65-20.86L162.65-20.86Q164.89-22.24 168.57-22.24L168.57-22.24Q172.31-22.24 174.55-21.15L174.55-21.15Q176.44-20.17 176.44-18.97L176.44-18.97Q176.44-18.51 176.07-18.22 175.7-17.93 175.24-17.93L175.24-17.93Q174.37-17.93 173.94-18.22 173.51-18.51 172.99-18.79 172.48-19.08 171.79-19.2L171.79-19.2Q170.52-19.54 168.51-19.54ZM220.48-13.28L220.48-13.28Q221.69-13.28 222.89-13.22L222.89-13.22 222.89-15.06Q222.89-19.54 217.89-19.54L217.89-19.54Q215.65-19.54 214.62-19.14L214.62-19.14Q212.78-18.45 211.97-17.96 211.17-17.47 210.71-17.47 210.25-17.47 209.85-17.82 209.45-18.16 209.45-18.74L209.45-18.74Q209.45-19.2 209.96-19.66L209.96-19.66Q212.66-22.24 217.95-22.24L217.95-22.24Q224.04-22.24 225.77-18.16L225.77-18.16Q226.34-16.72 226.34-14.83L226.34-14.83 226.23-1.55Q226.23-0.8 225.71-0.4 225.19 0 224.56 0 223.93 0 223.41-0.34 222.89-0.69 222.89-1.49L222.89-1.49 222.89-3.56Q221.51-0.57 217.95 0.17L217.95 0.17Q216.86 0.46 215.48 0.46 214.1 0.46 212.75 0.06 211.4-0.34 210.37-1.21L210.37-1.21Q208.24-2.99 208.24-6.03L208.24-6.03Q208.24-13.28 220.48-13.28ZM222.89-8.74L222.89-10.69Q221.97-10.57 220.77-10.57 219.56-10.57 218.3-10.55 217.03-10.52 215.88-10.26 214.73-10 213.81-9.48L213.81-9.48Q211.86-8.45 211.74-6.09L211.74-6.09Q211.74-4.25 213.24-3.22L213.24-3.22Q214.39-2.3 216.51-2.24L216.51-2.24Q219.1-2.24 221-3.91L221-3.91Q222.72-5.52 222.89-8.74L222.89-8.74ZM240.63-1.61L240.63-20.17Q240.63-20.92 241.21-21.38 241.78-21.84 242.36-21.84L242.36-21.84Q243.56-21.84 243.91-20.92 244.25-20 244.08-18.16L244.08-18.16Q244.77-19.89 247.07-21.15L247.07-21.15Q249.08-22.24 251.06-22.24 253.04-22.24 254.42-21.75 255.8-21.26 256.95-20.23L256.95-20.23Q259.25-18.05 259.25-13.79L259.25-13.79 259.25-1.61Q259.25-0.8 258.65-0.4 258.04 0 257.41 0L257.41 0Q256.72 0 256.21-0.43 255.69-0.86 255.69-1.61L255.69-1.61 255.69-14.02Q255.69-16.72 254.19-18.16L254.19-18.16Q252.81-19.54 250.75-19.54L250.75-19.54Q247.99-19.54 246.03-17.93L246.03-17.93Q244.08-16.21 244.08-12.64L244.08-12.64 244.08-1.61Q244.08-0.8 243.5-0.4 242.93 0 242.24 0L242.24 0Q241.55 0 241.09-0.43 240.63-0.86 240.63-1.61L240.63-1.61ZM289.17-1.61L289.17-3.62Q286.3 0.46 281.36 0.46L281.36 0.46Q276.87 0.46 274.34-3.1L274.34-3.1Q272.16-6.32 272.16-10.92L272.16-10.92Q272.16-18.62 277.28-21.26L277.28-21.26Q279-22.24 280.75-22.24 282.51-22.24 283.66-22.04 284.8-21.84 285.84-21.26L285.84-21.26Q288.02-20.17 289.17-18.28L289.17-18.28 289.17-29.66Q289.17-30.52 289.75-30.89 290.32-31.26 291.01-31.26L291.01-31.26Q291.7-31.26 292.22-30.89 292.74-30.52 292.74-29.66L292.74-29.66 292.74-1.61Q292.74-0.8 292.16-0.4 291.59 0 291.13 0 290.67 0 290.35-0.09 290.03-0.17 289.75-0.46L289.75-0.46Q289.17-0.86 289.17-1.61L289.17-1.61ZM282.05-2.24L282.05-2.24Q289.06-2.24 289.06-11.26L289.06-11.26Q289.06-17.07 285.55-18.85L285.55-18.85Q284.23-19.54 282.39-19.54 280.55-19.54 279.34-18.82 278.14-18.1 277.33-16.9L277.33-16.9Q275.9-14.66 275.9-11.21L275.9-11.21Q275.9-6.09 278.31-3.68L278.31-3.68Q279.69-2.24 282.05-2.24ZM336.49-13.68L330.68-13.68 330.68-1.9Q330.68-0.52 329.42-0.11L329.42-0.11Q329.07 0 328.55 0 328.04 0 327.43-0.46 326.83-0.92 326.83-1.9L326.83-1.9 326.83-29.43Q326.83-30.57 328.04-31.21L328.04-31.21Q328.38-31.38 328.84-31.38L328.84-31.38 336.66-31.38Q346.43-31.38 348.55-25.4L348.55-25.4Q349.07-24.02 349.07-22.47 349.07-20.92 348.61-19.6 348.15-18.28 347.29-17.24 346.43-16.21 345.22-15.57 344.01-14.94 342.63-14.48L342.63-14.48Q339.93-13.68 336.49-13.68L336.49-13.68ZM330.68-16.78L337.18-16.78Q340.91-16.78 342.69-18.05L342.69-18.05Q345.05-19.54 345.05-22.59L345.05-22.59Q345.05-25.52 342.69-27.01L342.69-27.01Q340.91-28.16 337.23-28.28L337.23-28.28 330.68-28.28 330.68-16.78ZM371.98-13.28L371.98-13.28Q373.19-13.28 374.39-13.22L374.39-13.22 374.39-15.06Q374.39-19.54 369.39-19.54L369.39-19.54Q367.15-19.54 366.12-19.14L366.12-19.14Q364.28-18.45 363.48-17.96 362.67-17.47 362.21-17.47 361.75-17.47 361.35-17.82 360.95-18.16 360.95-18.74L360.95-18.74Q360.95-19.2 361.46-19.66L361.46-19.66Q364.16-22.24 369.45-22.24L369.45-22.24Q375.54-22.24 377.27-18.16L377.27-18.16Q377.84-16.72 377.84-14.83L377.84-14.83 377.73-1.55Q377.73-0.8 377.21-0.4 376.69 0 376.06 0 375.43 0 374.91-0.34 374.39-0.69 374.39-1.49L374.39-1.49 374.39-3.56Q373.02-0.57 369.45 0.17L369.45 0.17Q368.36 0.46 366.98 0.46 365.6 0.46 364.25 0.06 362.9-0.34 361.87-1.21L361.87-1.21Q359.74-2.99 359.74-6.03L359.74-6.03Q359.74-13.28 371.98-13.28ZM374.39-8.74L374.39-10.69Q373.48-10.57 372.27-10.57 371.06-10.57 369.8-10.55 368.53-10.52 367.38-10.26 366.23-10 365.31-9.48L365.31-9.48Q363.36-8.45 363.25-6.09L363.25-6.09Q363.25-4.25 364.74-3.22L364.74-3.22Q365.89-2.3 368.02-2.24L368.02-2.24Q370.6-2.24 372.5-3.91L372.5-3.91Q374.22-5.52 374.39-8.74L374.39-8.74ZM399.89-19.54L399.89-19.54Q394.89-19.54 395.01-16.38L395.01-16.38Q395.01-14.37 397.88-13.62L397.88-13.62Q398.86-13.33 399.98-13.1 401.1-12.87 402.42-12.56 403.74-12.24 405.12-11.72L405.12-11.72Q407.07-11.15 408.14-9.8 409.2-8.45 409.2-6.55L409.2-6.55Q409.2-3.1 406.27-1.21L406.27-1.21Q403.63 0.52 399.6 0.46L399.6 0.46Q396.61 0.46 393.74-0.57L393.74-0.57Q392.59-1.03 391.9-1.67 391.21-2.3 391.21-2.87 391.21-3.45 391.59-3.79 391.96-4.14 392.48-4.14 392.99-4.14 393.65-3.85 394.32-3.56 395.35-3.22L395.35-3.22Q397.99-2.24 399.6-2.24 401.21-2.24 402.19-2.44 403.17-2.64 403.97-3.1L403.97-3.1Q405.69-4.25 405.69-6.09L405.69-6.09Q405.69-7.41 404.86-8.13 404.03-8.85 402.74-9.25 401.44-9.66 400.18-9.94 398.91-10.23 397.65-10.52 396.38-10.8 395.24-11.21 394.09-11.61 393.28-12.3L393.28-12.3Q391.33-13.68 391.33-16.21L391.33-16.21Q391.33-19.43 394.03-20.86L394.03-20.86Q396.27-22.24 399.95-22.24L399.95-22.24Q403.68-22.24 405.92-21.15L405.92-21.15Q407.82-20.17 407.82-18.97L407.82-18.97Q407.82-18.51 407.45-18.22 407.07-17.93 406.61-17.93L406.61-17.93Q405.75-17.93 405.32-18.22 404.89-18.51 404.37-18.79 403.86-19.08 403.17-19.2L403.17-19.2Q401.9-19.54 399.89-19.54ZM433.78-1.26L433.78-1.26Q433.78 0.46 429.7 0.46L429.7 0.46Q426.65 0.46 425.39-1.21L425.39-1.21Q424.01-2.99 423.89-7.07L423.89-7.07 423.89-19.14 421.36-19.14Q420.67-19.14 420.27-19.57 419.87-20 419.87-20.46L419.87-20.46Q419.87-20.92 420.21-21.38 420.56-21.84 421.36-21.84L421.36-21.84 424.12-21.84 424.35-28.05Q424.47-28.74 424.98-29.11 425.5-29.48 426.08-29.48 426.65-29.48 427.05-29.14 427.45-28.79 427.45-28.05L427.45-28.05 427.45-21.84 431.42-21.84Q432.11-21.84 432.48-21.38 432.86-20.92 432.86-20.46L432.86-20.46Q432.86-19.89 432.48-19.51 432.11-19.14 431.42-19.14L431.42-19.14 427.45-19.14 427.45-8.97Q427.45-4.71 427.74-3.82 428.03-2.93 428.66-2.59 429.29-2.24 430.21-2.24L430.21-2.24 432.45-2.41Q433.09-2.41 433.43-2.01 433.78-1.61 433.78-1.26ZM448.81-20.11L448.81-18.16Q450.19-22.24 454.85-22.24L454.85-22.24Q455.71-22.24 456.14-21.75 456.57-21.26 456.57-20.72 456.57-20.17 456.14-19.68 455.71-19.2 454.56-19.2 453.41-19.2 452.26-18.74 451.11-18.28 450.36-17.41L450.36-17.41Q448.81-15.52 448.81-12.41L448.81-12.41 448.81-1.61Q448.81-0.8 448.24-0.4 447.66 0 447.2 0 446.74 0 446.46-0.09 446.17-0.17 445.88-0.46L445.88-0.46Q445.36-0.8 445.36-1.61L445.36-1.61 445.36-20.11Q445.36-20.86 445.88-21.35 446.4-21.84 447.17-21.84 447.95-21.84 448.38-21.35 448.81-20.86 448.81-20.11L448.81-20.11ZM472.7-29.43L472.7-29.43Q472.7-28.51 472.07-27.93 471.43-27.36 470.29-27.36 469.14-27.36 468.5-27.93 467.87-28.51 467.87-29.43L467.87-29.43Q467.87-30.23 468.5-30.8 469.14-31.38 470.31-31.38 471.49-31.38 472.1-30.8 472.7-30.23 472.7-29.43ZM468.56-1.72L468.56-20Q468.56-20.86 469.14-21.35 469.71-21.84 470.17-21.84 470.63-21.84 470.92-21.7 471.2-21.55 471.49-21.26L471.49-21.26Q472.12-20.86 472.12-20L472.12-20 472.12-1.72Q472.12-0.86 471.55-0.43 470.97 0 470.29 0L470.29 0Q469.6 0 469.08-0.43 468.56-0.86 468.56-1.72L468.56-1.72ZM506.01-11.55L506.01-11.55Q506.01-10.34 504.63-10.23L504.63-10.23 488.88-10.23Q489.11-4.37 493.48-2.64L493.48-2.64Q494.69-2.24 496.24-2.24L496.24-2.24Q499.46-2.24 502.79-4.6L502.79-4.6Q503.83-5.17 504.52-4.48L504.52-4.48Q504.86-4.14 504.75-3.79L504.75-3.79Q504.75-2.99 504.34-2.64L504.34-2.64Q501.18 0.52 496.01 0.46L496.01 0.46Q491.3 0.46 488.42-2.59L488.42-2.59Q485.21-5.75 485.21-10.92L485.21-10.92Q485.21-15.69 487.85-18.79L487.85-18.79Q490.61-22.24 495.67-22.24L495.67-22.24Q500.72-22.24 503.37-19.2L503.37-19.2Q505.9-16.44 506.01-11.55ZM489-12.59L502.62-12.59Q502.45-15.69 500.61-17.7L500.61-17.7Q498.88-19.54 495.67-19.54L495.67-19.54Q492.91-19.54 490.95-17.47L490.95-17.47Q489.17-15.4 489-12.59L489-12.59ZM526.85-19.54L526.85-19.54Q521.85-19.54 521.97-16.38L521.97-16.38Q521.97-14.37 524.84-13.62L524.84-13.62Q525.82-13.33 526.94-13.1 528.06-12.87 529.38-12.56 530.7-12.24 532.08-11.72L532.08-11.72Q534.03-11.15 535.1-9.8 536.16-8.45 536.16-6.55L536.16-6.55Q536.16-3.1 533.23-1.21L533.23-1.21Q530.59 0.52 526.56 0.46L526.56 0.46Q523.57 0.46 520.7-0.57L520.7-0.57Q519.55-1.03 518.86-1.67 518.17-2.3 518.17-2.87 518.17-3.45 518.55-3.79 518.92-4.14 519.44-4.14 519.95-4.14 520.62-3.85 521.28-3.56 522.31-3.22L522.31-3.22Q524.95-2.24 526.56-2.24 528.17-2.24 529.15-2.44 530.13-2.64 530.93-3.1L530.93-3.1Q532.66-4.25 532.66-6.09L532.66-6.09Q532.66-7.41 531.82-8.13 530.99-8.85 529.7-9.25 528.4-9.66 527.14-9.94 525.87-10.23 524.61-10.52 523.35-10.8 522.2-11.21 521.05-11.61 520.24-12.3L520.24-12.3Q518.29-13.68 518.29-16.21L518.29-16.21Q518.29-19.43 520.99-20.86L520.99-20.86Q523.23-22.24 526.91-22.24L526.91-22.24Q530.64-22.24 532.89-21.15L532.89-21.15Q534.78-20.17 534.78-18.97L534.78-18.97Q534.78-18.51 534.41-18.22 534.03-17.93 533.57-17.93L533.57-17.93Q532.71-17.93 532.28-18.22 531.85-18.51 531.33-18.79 530.82-19.08 530.13-19.2L530.13-19.2Q528.86-19.54 526.85-19.54ZM579.97-1.26L579.97-1.26Q579.97 0.46 575.89 0.46L575.89 0.46Q572.84 0.46 571.58-1.21L571.58-1.21Q570.2-2.99 570.08-7.07L570.08-7.07 570.08-19.14 567.55-19.14Q566.86-19.14 566.46-19.57 566.06-20 566.06-20.46L566.06-20.46Q566.06-20.92 566.41-21.38 566.75-21.84 567.55-21.84L567.55-21.84 570.31-21.84 570.54-28.05Q570.66-28.74 571.18-29.11 571.69-29.48 572.27-29.48 572.84-29.48 573.24-29.14 573.65-28.79 573.65-28.05L573.65-28.05 573.65-21.84 577.61-21.84Q578.3-21.84 578.68-21.38 579.05-20.92 579.05-20.46L579.05-20.46Q579.05-19.89 578.68-19.51 578.3-19.14 577.61-19.14L577.61-19.14 573.65-19.14 573.65-8.97Q573.65-4.71 573.93-3.82 574.22-2.93 574.85-2.59 575.49-2.24 576.41-2.24L576.41-2.24 578.65-2.41Q579.28-2.41 579.62-2.01 579.97-1.61 579.97-1.26ZM590-10.86L590-10.86Q590-12.93 590.67-15 591.33-17.07 592.71-18.74L592.71-18.74Q595.58-22.24 600.87-22.24 606.15-22.24 609.03-18.74L609.03-18.74Q611.73-15.4 611.73-10.92L611.73-10.92Q611.73-6.38 609.03-3.1L609.03-3.1Q606.15 0.46 600.87 0.46 595.58 0.46 592.71-3.1L592.71-3.1Q590-6.32 590-10.86ZM593.74-10.86L593.74-10.86Q593.74-9.48 594.11-7.93 594.49-6.38 595.46-5.06L595.46-5.06Q597.42-2.24 600.87-2.24L600.87-2.24Q604.49-2.24 606.27-5.06L606.27-5.06Q607.94-7.7 607.94-10.92L607.94-10.92Q607.94-14.25 606.27-16.67L606.27-16.67Q604.43-19.54 600.87-19.54L600.87-19.54Q597.42-19.54 595.46-16.67L595.46-16.67Q593.74-14.31 593.74-10.86ZM652.6-19.48L652.6-19.48Q646.17-19.48 646.17-10.92L646.17-10.92Q646.17-6.9 648.18-4.6L648.18-4.6Q649.9-2.59 652.66-2.53L652.66-2.53Q655.48-2.53 657.43-4.66L657.43-4.66Q659.5-6.9 659.5-10.8L659.5-10.8Q659.5-16.67 655.82-18.74L655.82-18.74Q654.56-19.48 652.6-19.48ZM651.68-22.24L651.68-22.24Q657.32-22.24 659.62-17.93L659.62-17.93 659.62-20.34Q659.73-21.03 660.19-21.44 660.65-21.84 661.28-21.84 661.91-21.84 662.43-21.38 662.95-20.92 662.95-20.17L662.95-20.17 662.95 0.46Q662.95 4.94 660.08 7.13L660.08 7.13Q657.49 9.2 652.6 9.2L652.6 9.2Q648.24 9.2 646.05 7.7L646.05 7.7Q644.33 6.44 644.33 5.63L644.33 5.63Q644.33 5.06 644.7 4.68 645.08 4.31 645.56 4.31 646.05 4.31 646.51 4.63 646.97 4.94 647.6 5.23 648.24 5.52 648.87 5.75L648.87 5.75Q650.54 6.32 652.29 6.32 654.04 6.32 655.33 6.03 656.63 5.75 657.55 5.06L657.55 5.06Q659.5 3.79 659.5 0.69L659.5 0.69 659.5-4.31Q657.83-1.15 654.21-0.23L654.21-0.23Q653.06 0 651.97 0L651.97 0Q647.2 0 644.67-3.28L644.67-3.28Q642.32-6.21 642.32-10.8L642.32-10.8Q642.32-15.69 644.67-18.79L644.67-18.79Q647.14-22.24 651.68-22.24ZM675.4-10.86L675.4-10.86Q675.4-12.93 676.06-15 676.72-17.07 678.1-18.74L678.1-18.74Q680.97-22.24 686.26-22.24 691.55-22.24 694.42-18.74L694.42-18.74Q697.12-15.4 697.12-10.92L697.12-10.92Q697.12-6.38 694.42-3.1L694.42-3.1Q691.55 0.46 686.26 0.46 680.97 0.46 678.1-3.1L678.1-3.1Q675.4-6.32 675.4-10.86ZM679.13-10.86L679.13-10.86Q679.13-9.48 679.51-7.93 679.88-6.38 680.86-5.06L680.86-5.06Q682.81-2.24 686.26-2.24L686.26-2.24Q689.88-2.24 691.66-5.06L691.66-5.06Q693.33-7.7 693.33-10.92L693.33-10.92Q693.33-14.25 691.66-16.67L691.66-16.67Q689.82-19.54 686.26-19.54L686.26-19.54Q682.81-19.54 680.86-16.67L680.86-16.67Q679.13-14.31 679.13-10.86ZM715.2-3.97L715.2-3.97Q716.41-3.97 716.81-3.56L716.81-3.56Q717.5-2.64 717.5-2.13 717.5-1.61 717.39-1.24 717.27-0.86 716.93-0.57L716.93-0.57Q716.24 0 715.2 0L715.2 0Q714.06 0 713.65-0.46L713.65-0.46Q712.79-1.15 712.79-1.78 712.79-2.41 712.96-2.7 713.14-2.99 713.37-3.33L713.37-3.33Q714-3.97 715.2-3.97ZM713.65-9.66L712.96-30.8Q712.96-31.61 713.62-32.07 714.29-32.53 715.03-32.53 715.78-32.53 716.44-32.07 717.1-31.61 717.1-30.8L717.1-30.8 716.47-9.66Q716.41-8.79 715.98-8.3 715.55-7.82 715.03-7.82 714.52-7.82 714.08-8.28 713.65-8.74 713.65-9.66L713.65-9.66Z" opacity="1" transform="matrix(1,0,0,1,0,0)" fill="#ffffff" class="undefined-text-1" data-fill-palette-color="secondary" id="text-1"></path></svg></g></svg></g></svg></g></svg></g><g transform="matrix(1,0,0,1,113.34954096587298,0)"><svg viewBox="0 0 168.82091806825403 168.82091806825403" height="168.82091806825403" width="168.82091806825403"><g><svg></svg></g><g id="icon-0"><svg viewBox="0 0 168.82091806825403 168.82091806825403" height="168.82091806825403" width="168.82091806825403"><g><path d="M0 84.41c0-46.619 37.792-84.41 84.41-84.41 46.619 0 84.41 37.792 84.411 84.41 0 46.619-37.792 84.41-84.411 84.411-46.619 0-84.41-37.792-84.41-84.411zM84.41 165.444c44.754 0 81.034-36.28 81.034-81.034 0-44.754-36.28-81.034-81.034-81.033-44.754 0-81.034 36.28-81.033 81.033 0 44.754 36.28 81.034 81.033 81.034z" data-fill-palette-color="accent" fill="#ffffff" stroke="transparent"></path></g><g transform="matrix(1,0,0,1,36.761705816801296,35.7527978344043)"><svg viewBox="0 0 95.29750643465144 97.31532239944544" height="97.31532239944544" width="95.29750643465144"><g><svg xmlns="http://www.w3.org/2000/svg" viewBox="137.40542602539062 190.29190063476562 712.456298828125 727.541748046875" version="1.1" x="0" y="0" height="97.31532239944544" width="95.29750643465144" class="icon-x-0" data-fill-palette-color="accent" id="x-0"><path fill="#ffffff" opacity="1.00" d="M431.83 194.46C485.02 187.23 539.69 189.14 591.82 202.28 628.88 210.89 664.52 225.42 697.27 244.75 728.8 263.7 757.63 287.57 780.52 316.47 803.64 344.86 820.76 378.26 829.41 413.88 837.6 447.62 837.74 483.25 829.95 517.08 834.3 519.7 836.96 524.11 839.74 528.21 848.35 541.68 852.38 558.61 848.2 574.29 845.11 588.14 836.55 599.98 826.85 610.03 828.3 613.79 829.29 617.97 828.02 621.95 800.64 716.64 773.23 811.32 745.83 906.01 744.7 910.48 741.68 914.52 737.4 916.4 732.9 918.55 727.8 917.63 723.01 917.68 570.3 917.68 417.6 917.68 264.9 917.68 260.08 917.9 255.17 915.86 252.21 912 249.69 908.93 248.99 904.93 247.84 901.25 218.12 807.27 188.38 713.28 158.66 619.29 157.49 615.8 158.01 612.05 159.19 608.64 155.41 604.13 151.35 599.83 148.04 594.96 145.38 590.95 144.07 586.26 141.9 582 140.31 578.85 138.99 575.5 138.7 571.95 138.09 565.36 136.54 558.66 138.04 552.08 139.61 545.21 142.41 538.7 145.33 532.32 147.59 527.29 151.43 523.25 154.63 518.83 151.58 504.38 149.7 489.67 148.61 474.95 148.53 454.75 149.47 434.3 154.82 414.72 159.26 397.55 164.64 380.48 172.83 364.69 180.8 348.16 190.77 332.61 202.33 318.37 232.46 279.72 272.92 250 316.88 228.84 333.17 221.7 349.49 214.51 366.56 209.38 387.84 202.5 409.79 198.07 431.83 194.46M439.19 223.68C415.14 227.41 391.21 232.4 368.18 240.41 355.29 244.52 343.02 250.28 330.58 255.55 308.67 265.97 287.84 278.73 268.82 293.83 237.08 319.26 210.34 351.7 194.41 389.32 189.91 400.37 186.43 411.82 183.56 423.39 179.8 437.27 178.95 451.73 178.6 466.04 178.09 476.48 179.88 486.83 181.22 497.14 182.77 510.16 186.89 522.69 190.87 535.11 194.7 541.71 192.49 550.93 185.98 554.96 180.7 558.58 173.49 557.92 168.38 554.33 166.98 558.17 167.48 562.28 168.43 566.16 170.13 571.97 172.17 577.91 176.41 582.41 181.32 589.19 188.44 593.82 193.92 600.06 354.93 600.02 515.94 600.06 676.95 600.04 715.27 599.93 753.62 600.27 791.92 599.88 803.18 592.41 813.47 582.42 818.42 569.62 820.33 564.13 819.96 558.29 818.46 552.77 816.92 558.43 812.92 563.78 806.95 565.12 798.97 567.4 790.01 561.77 788.53 553.64 787.02 546.11 792.16 539.66 794.41 532.87 796.85 523.74 799.99 514.79 801.79 505.5 806.72 481.3 807.02 456.19 802.58 431.89 796.06 395.91 779.33 362.13 756.15 333.98 731.05 302.86 698.53 278.21 663.01 260.11 637.68 247.18 610.75 237.29 583.01 231 558.15 224.7 532.55 221.55 506.96 220.51 484.32 219.47 461.67 221.09 439.19 223.68M193.48 630.01C220.68 715.91 247.78 801.84 275.05 887.72 285.51 887.71 295.98 887.74 306.44 887.71 297.32 824.51 288.24 761.31 279.13 698.11 278.57 693.71 277.28 689.1 278.84 684.77 280.87 678.51 287.37 674.09 293.96 674.63 301.08 674.89 307.3 680.91 307.96 687.98 317.54 754.56 327.13 821.14 336.74 887.72 363.99 887.71 391.25 887.74 418.51 887.71 415.77 821.47 413.07 755.24 410.36 689 409.81 680.92 416.93 673.44 425.01 673.51 432.94 673.12 440.23 680.04 440.28 687.97 443.05 754.55 445.74 821.14 448.48 887.72 480.42 887.72 512.35 887.74 544.29 887.71 549.21 822.13 554.11 756.56 559.02 690.98 559.35 683.32 566.41 676.78 574.08 677.06 582.39 676.86 589.73 684.72 588.88 693.02 584.12 757.93 579.18 822.82 574.35 887.73 600.12 887.71 625.89 887.74 651.66 887.71 663.01 822.49 674.35 757.27 685.68 692.06 686.49 686.24 691.01 681.24 696.68 679.8 702.96 678.07 710.12 680.97 713.37 686.63 715.72 690.32 715.84 694.92 714.91 699.09 703.93 761.96 693.07 824.85 682.08 887.71 694.68 887.73 707.28 887.72 719.89 887.72 744.82 801.83 769.6 715.9 794.51 630 594.17 630 393.83 629.99 193.48 630.01Z" data-fill-palette-color="accent"></path><path fill="#ffffff" opacity="1.00" d="M439.34 285.51C444.93 283.27 451.46 285.16 455.55 289.42 478.9 312.77 502.23 336.15 525.58 359.5 530.01 363.85 531.32 371.01 528.52 376.59 525.62 382.98 517.84 386.63 511.08 384.63 505.8 383.33 502.51 378.68 498.81 375.09 477.12 353.46 455.48 331.77 433.79 310.14 429.07 305.59 427.96 297.93 431.29 292.26 432.96 289.05 436.02 286.8 439.34 285.51Z" data-fill-palette-color="accent"></path><path fill="#ffffff" opacity="1.00" d="M511.37 288.65C516.67 286.6 523.02 287.9 527.08 291.88 554.94 319.73 582.77 347.62 610.65 375.45 613.33 378.25 615.07 382.03 614.73 385.97 615.27 392.63 610.18 398.82 603.87 400.45 599.01 401.29 593.6 400.69 589.94 397.07 580.75 388.28 571.98 379.06 562.89 370.16 543.97 351.06 524.76 332.24 505.89 313.1 498.41 305.93 501.54 291.93 511.37 288.65Z" data-fill-palette-color="accent"></path></svg></g></svg></g></svg></g></svg></g><g></g></svg></g></svg><rect width="382.0437395760096" height="247.2" fill="none" stroke="none" visibility="hidden"></rect></g></svg></g></svg>